PathFileType	4	(X/Y/Z)	C:\Users\dbl\Desktop\20210112\20210112\bx_n_0_501.trc
DataRate	CameraRate	NumFrames	NumMarkers	Units	OrigDataRate	OrigDataStartFrame	OrigNumFrames
50.00	50.00	       10	43	mm	50.00	43	       339
Frame#	Time	Top.Head			R.Acromium			L.Acromium			Sternum			R.ASIS			L.ASIS			V.Sacral			R.Thigh.Upper			R.Thigh.Front			R.Thigh.Rear			R.Knee.Lat			R.Knee.Med			R.Shank.Upper			R.Shank.Front			R.Shank.Rear			R.Ankle.Lat			R.Midfoot.Lat			R.Toe.Lat			R.Toe.Tip			R.Toe.Med			R.Ankle.Med			R.Midfoot.Sup			R.Heel			L.Thigh.Upper			L.Thigh.Front			L.Thigh.Rear			L.Knee.Lat			L.Knee.Med			L.Shank.Upper			L.Shank.Front			L.Shank.Rear			L.Ankle.Lat			L.Midfoot.Lat			L.Toe.Lat			L.Toe.Tip			L.Toe.Med			L.Ankle.Med			L.Midfoot.Sup			L.Heel			origin1 front left			origin2 front right			origin 3 back right			origin 4 back leftt			
		X1	Y1	Z1	X2	Y2	Z2	X3	Y3	Z3	X4	Y4	Z4	X5	Y5	Z5	X6	Y6	Z6	X7	Y7	Z7	X8	Y8	Z8	X9	Y9	Z9	X10	Y10	Z10	X11	Y11	Z11	X12	Y12	Z12	X13	Y13	Z13	X14	Y14	Z14	X15	Y15	Z15	X16	Y16	Z16	X17	Y17	Z17	X18	Y18	Z18	X19	Y19	Z19	X20	Y20	Z20	X21	Y21	Z21	X22	Y22	Z22	X23	Y23	Z23	X24	Y24	Z24	X25	Y25	Z25	X26	Y26	Z26	X27	Y27	Z27	X28	Y28	Z28	X29	Y29	Z29	X30	Y30	Z30	X31	Y31	Z31	X32	Y32	Z32	X33	Y33	Z33	X34	Y34	Z34	X35	Y35	Z35	X36	Y36	Z36	X37	Y37	Z37	X38	Y38	Z38	X39	Y39	Z39	X40	Y40	Z40	X41	Y41	Z41	X42	Y42	Z42	X43	Y43	Z43	

43	0.840	-624.13593	125.73027	1849.61682	-662.62988	-68.87234	1551.00427	-710.65692	285.59296	1537.04480	-584.02997	108.59459	1353.91284	-591.80060	-5.04623	1054.15796	-605.81329	240.83174	1065.24744	-799.63879	87.83648	1061.96802	-652.62067	-74.35967	872.20715	-582.93176	2.97308	804.00122	-671.92511	-61.90118	756.72205	-695.09021	-37.30649	614.87354				-702.03583	-34.16516	567.36127				-745.17889	-50.46374	487.86365	-755.35364	-20.98850	206.54063	-641.63586	-59.01237	163.45326	-599.86902	-61.28590	160.36650	-546.57831	-13.39201	164.81245	-600.66339	38.09767	166.41995	-724.09216	71.21951	215.08484	-677.39600	58.63528	157.53568				-685.21820	283.67194	874.56372	-590.43280	215.79475	793.88806				-722.98474	252.99594	642.92914							-674.29169	197.48445	534.35553	-758.75873	260.55359	500.97418																																					
44	0.860	-620.99377	125.82873	1849.54028	-660.51239	-68.91992	1551.27966	-708.43555	285.43610	1537.34119	-583.35333	108.67673	1353.28979	-592.28479	-5.47691	1054.11157	-606.23163	240.79692	1065.16992	-800.02991	87.71964	1062.06055	-652.95050	-74.67796	872.41919	-582.99908	3.01735	804.06146	-672.31598	-61.99019	756.86560	-695.06244	-37.38975	614.82019				-702.26172	-34.41268	567.73291				-745.28192	-50.68469	487.90463	-755.09924	-21.59541	206.74081	-641.70709	-59.35033	163.69958	-599.79321	-61.54538	160.40669	-546.64209	-13.41979	164.73393	-600.50586	37.99617	166.54601	-724.09216	71.21951	215.08484	-677.39600	58.63528	157.53568				-685.46729	283.82339	874.56714	-591.07751	216.26482	793.72906				-723.46344	253.05664	643.08942							-674.70435	197.33199	534.59906	-758.85449	260.49789	500.98880																																					
45	0.880	-617.23804	125.80081	1849.19153	-658.01654	-68.87795	1551.11975	-706.27197	285.73169	1537.56726	-582.11005	108.45940	1352.80969	-592.78033	-5.35131	1053.71423	-607.00836	240.81445	1064.94202	-800.52423	87.49283	1062.42419	-653.69684	-74.57610	872.50482	-583.22614	2.97779	804.18323	-672.61407	-61.97800	756.71240	-695.28021	-37.14968	614.87744				-702.54486	-34.69011	567.84106				-745.28192	-50.68469	487.90463	-755.55737	-21.22461	206.62099	-641.76111	-59.13056	163.45186	-599.53833	-61.58883	160.50919	-546.89868	-13.21194	164.77380	-600.67542	38.05978	166.53455	-724.09216	71.21951	215.08484	-677.32556	58.59143	157.65460				-686.31769	283.16428	874.46143	-591.28729	216.33032	793.78510				-723.85187	252.79112	642.89624							-674.78882	197.45271	534.60016	-759.13098	260.32974	500.83521																																					
46	0.900	-613.40717	125.49255	1848.89783	-655.76874	-68.91889	1550.87109	-703.78107	285.27435	1537.55823	-580.77875	108.12871	1352.33911	-593.47308	-5.65646	1053.76233	-607.42444	240.40378	1064.99854	-800.89478	87.38943	1062.79285	-654.41760	-74.09740	871.94653	-583.81268	3.05182	804.24335	-673.03198	-62.18981	756.77380	-695.39459	-37.13072	614.71918				-702.77856	-34.55013	567.63727				-745.67273	-50.91485	488.01038	-755.26538	-21.29169	206.53493	-641.65955	-59.19395	163.88208	-599.67944	-61.38155	160.50717	-546.88519	-13.23537	164.61987	-600.66339	38.09767	166.41995	-724.09216	71.21951	215.08484	-677.24591	58.41585	157.54445				-687.10309	282.94678	874.65686	-591.81909	216.28749	793.58966				-724.37604	252.61882	642.93634							-675.05933	197.60822	534.52747	-759.26648	260.22546	500.97159																																					
47	0.920	-609.32910	125.73582	1848.57568	-652.99567	-68.76182	1550.98584	-701.06366	285.38370	1537.76257	-579.62000	108.18682	1351.49146	-593.83484	-5.80534	1054.02734	-607.79462	240.57266	1064.79419	-801.35034	87.42003	1063.00269	-655.02588	-74.39824	872.06451	-584.65588	3.28676	804.47644	-674.02612	-62.40475	756.58234	-695.86798	-37.12717	614.57703				-702.77850	-34.49105	567.70215				-746.02576	-50.85630	487.95920	-755.30725	-21.21024	206.57858	-641.64160	-59.19513	163.52153	-599.86902	-61.28590	160.36650	-546.89471	-13.13890	164.66409	-600.64929	38.12981	166.43150	-724.09216	71.21951	215.08484	-677.32556	58.59143	157.65460				-687.57965	282.98032	874.43311	-592.81879	215.96202	793.70343				-724.67316	252.33218	642.81976							-675.26733	197.36575	534.56378	-759.46332	260.16724	500.75479																																					
48	0.940	-604.91217	125.67786	1847.99878	-650.07648	-68.97006	1550.77087	-698.18530	284.97769	1537.91882	-578.08618	108.02537	1350.95483	-594.57843	-5.99229	1053.60681	-608.53595	240.11951	1064.45679	-801.85352	87.40787	1063.26746	-655.69757	-74.40961	872.01617	-585.51117	2.42425	804.37170	-674.53436	-62.28910	756.56525	-696.54803	-36.99864	614.68567				-703.26892	-34.57743	567.71063				-746.30432	-50.93541	487.89404	-755.30988	-21.34934	206.48553	-641.64941	-59.35297	163.69994	-599.72784	-61.49318	160.36853	-546.82819	-13.16676	164.73050	-600.60944	38.14583	166.45305	-724.09216	71.21951	215.08484	-677.39600	58.63528	157.53568				-688.35742	282.50809	874.54614	-593.77448	215.84404	793.65381				-725.36035	252.54156	642.96704							-675.84137	197.35529	534.79492	-760.06293	259.92307	500.56329																																					
49	0.960	-600.36475	125.57518	1847.62048	-646.67676	-69.04570	1550.69910	-694.44275	285.88611	1537.88733	-576.77930	107.97742	1350.06006	-594.81146	-5.89398	1053.63831	-608.75037	239.98082	1064.27576	-802.62067	86.96643	1063.73279	-656.69092	-74.55132	872.18799	-586.00897	2.39131	804.49896	-674.96918	-62.69036	756.99139	-696.91077	-37.12833	614.76788				-703.46881	-34.42223	567.57452				-746.54022	-50.98353	487.88010	-755.39960	-21.44851	206.55173	-641.71185	-59.25470	163.68936	-599.64240	-61.42886	160.33257	-546.89471	-13.13890	164.66409	-600.67542	38.05978	166.53455	-724.26880	70.99197	214.88300	-677.35968	58.50102	157.65634				-689.30231	282.32901	874.28516	-593.98706	216.02853	793.96094				-725.89410	252.40526	642.90082							-676.34766	197.26155	534.64709	-760.56567	259.79047	500.40179																																					
50	0.980	-595.46210	125.68605	1847.07617	-643.53528	-68.85887	1550.84180	-690.89349	286.02985	1538.07397	-574.98962	107.70602	1349.39380	-595.78357	-6.29733	1053.38147	-609.04291	239.70248	1064.17041	-803.44397	87.05436	1064.45227	-657.68530	-75.11333	872.72021	-586.62006	2.17391	804.92212	-676.13934	-62.53947	757.02625	-697.36786	-37.16851	614.51959				-703.94342	-34.55779	567.75989				-746.78790	-51.18606	488.01413	-755.55981	-21.31374	206.51569	-641.64160	-59.19513	163.52153	-599.76489	-61.44587	160.54312	-546.82422	-13.09372	164.62077	-600.67542	38.05978	166.53455	-724.24652	70.67583	214.85881	-677.20947	58.58045	157.81796				-690.05682	283.01178	874.89233	-594.72516	215.80626	793.98486				-726.71826	252.55052	642.96118							-676.68634	197.07739	534.81903	-760.97107	259.88773	500.46564																																					
51	1.000	-590.44586	125.41306	1846.37390	-639.94507	-69.15156	1550.44128	-687.88446	285.46512	1538.01257	-573.21472	107.65979	1348.51270	-596.50977	-6.58104	1053.31885	-610.66180	239.28087	1063.96423	-803.87286	86.65868	1064.94080	-658.73755	-75.13781	872.70557	-587.54468	2.16305	804.59198	-676.85236	-62.43469	756.93970	-697.74335	-37.44136	615.01147				-704.45789	-34.59463	567.35815				-747.12866	-50.90209	487.65601	-755.55981	-21.31374	206.51569	-641.78815	-59.02686	163.64391	-599.64056	-61.57295	160.74205	-546.89471	-13.13890	164.66409	-600.70282	38.14729	166.42862	-724.38531	70.79870	214.77724	-677.32556	58.59143	157.65460				-691.52570	282.09628	874.47797	-595.69086	215.73648	794.03528				-727.25574	252.42517	642.60510							-677.11975	196.98553	534.86707	-761.13232	259.99698	500.36139																																					
52	1.020	-584.67151	125.53827	1845.76379	-635.90710	-69.13094	1550.03076	-683.64874	285.83347	1538.16199	-571.33038	107.52935	1347.41553	-597.49854	-6.59557	1052.77612	-611.30688	239.10783	1063.71692	-804.45502	86.59888	1065.26868	-659.66486	-75.33897	872.62354	-588.65796	1.78708	804.63538	-677.91248	-62.80796	757.10864	-698.44763	-37.28860	614.82581				-704.95605	-34.65015	567.32330				-747.57098	-51.14384	487.72562	-755.45325	-21.45246	206.48328	-641.59406	-59.03875	163.70407	-599.86902	-61.28590	160.36650	-546.94891	-13.26315	164.54134	-600.67542	38.05978	166.53455	-724.58289	70.54116	214.55342	-677.25519	58.48386	157.80730				-692.33612	282.35703	875.19244	-596.59656	216.11133	793.72046				-728.00031	252.15549	642.74121							-677.49933	196.92836	534.98846	-761.70770	259.73508	500.49701																																					
